<svg xmlns="http://www.w3.org/2000/svg" viewBox="0 0 24 24" fill="none" stroke="#61F2CD" stroke-width="2" stroke-linecap="round" stroke-linejoin="round"><path d="M12 2a2 2 0 0 1 2 2c0 .74-.4 1.39-1 1.73V7h1a7 7 0 0 1 7 7v1h1.27c.34.6.99 1 1.73 1a2 2 0 0 1-2 2 2 2 0 0 1-2-2c0-.74.4-1.39 1-1.73V14a5 5 0 0 0-5-5h-1v1.27c.6.34 1 .99 1 1.73a2 2 0 0 1-2 2 2 2 0 0 1-2-2c0-.74.4-1.39 1-1.73V9h-1a5 5 0 0 0-5 5v1.27c.6.34 1 .99 1 1.73a2 2 0 0 1-2 2 2 2 0 0 1-2-2c0-.74.4-1.39 1-1.73V14a7 7 0 0 1 7-7h1V5.73c-.6-.34-1-.99-1-1.73a2 2 0 0 1 2-2Z"/></svg>